<?xml version="1.0" encoding="UTF-8"?><svg id="Layer_2" xmlns="http://www.w3.org/2000/svg" viewBox="0 0 114.07 28.05"><defs><style>.cls-1{fill:#fff;}</style></defs><g id="Layer_2-2"><path class="cls-1" d="m45.46,19.57c0,.31-.03.59-.1.83s-.15.47-.25.66c-.1.19-.2.35-.3.49s-.19.24-.26.33c.48.35.86.75,1.15,1.2.29.45.43.99.43,1.64,0,.43-.08.83-.23,1.21s-.37.72-.63,1.02-.58.54-.94.73c-.36.19-.75.3-1.16.35h-11.4v-.71c0-.21.07-.39.22-.54.15-.15.32-.22.53-.22h10.47c.23-.01.45-.07.65-.16s.39-.23.55-.41c.16-.17.28-.36.37-.58.09-.22.14-.44.14-.68s-.05-.49-.15-.71c-.1-.22-.23-.41-.39-.58-.16-.16-.35-.3-.58-.4-.22-.1-.46-.15-.71-.15h-.39c-.1,0-.28,0-.54,0s-.66,0-1.22,0h-8.21c-.21,0-.38-.07-.53-.22-.15-.15-.22-.33-.22-.54v-.71h10.44c.25,0,.49-.05.71-.15.22-.1.42-.23.58-.4.17-.16.3-.36.39-.58.09-.22.14-.46.14-.71s-.05-.49-.14-.72-.22-.42-.39-.59c-.17-.16-.36-.3-.58-.4-.22-.1-.46-.15-.71-.15h-9.69c-.21,0-.38-.07-.53-.22-.15-.15-.22-.33-.22-.54v-.71h9.93c.2,0,.35,0,.45,0s.19,0,.27,0v.02c.43.03.82.14,1.19.32.37.18.69.42.97.72.28.3.49.64.65,1.03.16.39.24.81.24,1.25h0Z"/><path class="cls-1" d="m77.31,16.97c0-.21-.07-.39-.21-.54s-.32-.22-.53-.22h-9.79v.71c0,.21.07.39.22.54s.32.22.53.22h3.77v9.55c0,.21.07.39.22.54s.32.22.53.22h.75v-10.31h4.5v-.71h0Z"/><path class="cls-1" d="m82.58,27.99c-.21,0-.39-.07-.53-.22-.15-.15-.22-.33-.22-.54v-11.02h.75c.21,0,.39.07.53.22.15.15.22.33.22.54v11.02h-.75Z"/><path class="cls-1" d="m9.96,26.6c-.15-.2-.31-.4-.47-.59-.16-.2-.35-.44-.58-.73s-.49-.63-.8-1.02c.4.51-.26-.34-1.17-1.45.47.01,1.72-.07,2.12-.25.41-.17.76-.41,1.05-.71s.53-.65.71-1.06c.18-.4.26-.83.26-1.28s-.09-.89-.26-1.29-.42-.75-.73-1.05-.66-.53-1.07-.7c-.41-.17-1.65-.24-2.12-.23H.95c-.06-.02-.12-.03-.19-.03H.01v.03h-.01v.43c0,.05,0,.1.01.15v10.42c0,.21.07.39.22.54s.32.22.53.22h.75v-10.27h5.48c.25,0,1.3.04,1.52.13.22.09.42.22.58.38s.3.35.4.57c.1.22.15.46.15.71s-.05.49-.15.71-.23.41-.4.57-.36.29-.58.39c-.22.1-1.27.16-1.52.16h-3.13c.97,1.2,1.76,2.18,2.38,2.95s1.11,1.39,1.48,1.85.64.8.82,1.02.3.37.38.46c.07.09.12.14.14.16s.06.07.13.15l.03-.03c.15.08.31.12.5.12h1.39c-.25-.31-.46-.57-.64-.79-.18-.22-.34-.43-.49-.63h0Z"/><path class="cls-1" d="m93.68,17.72c-.6,0-1.17.12-1.7.35-.53.23-1,.55-1.4.95-.4.4-.71.87-.94,1.4-.23.53-.34,1.11-.34,1.73s.12,1.18.34,1.71c.23.53.54,1,.94,1.4s.87.72,1.4.95,1.1.35,1.7.35h4.27c.21,0,.38.07.53.22.15.15.22.33.22.54v.71h-5.32c-.77-.04-1.49-.23-2.16-.55-.67-.32-1.26-.75-1.76-1.28-.5-.53-.89-1.14-1.18-1.83s-.43-1.43-.43-2.21.14-1.54.43-2.23.68-1.3,1.18-1.83,1.08-.96,1.76-1.28c.67-.32,1.39-.51,2.16-.55h5.32v.71c0,.21-.07.39-.22.54s-.32.22-.53.22h-4.27Z"/><path class="cls-1" d="m113.8,23.41c-.17-.4-.41-.75-.7-1.04-.3-.3-.64-.53-1.04-.71s-3.08-.26-3.53-.26h-.25c-.05-.01-.1-.02-.16-.02-.25,0-2.13-.05-2.35-.14s-.42-.22-.58-.39-.29-.36-.39-.58-.15-.46-.15-.72.05-.49.15-.71c.1-.22.23-.41.39-.58s.35-.3.58-.39c.22-.1.46-.15.71-.15h6.36c.21,0,.38-.07.53-.22.15-.15.22-.33.22-.55v-.69h-7c-.47-.02-.91.05-1.32.22-.41.17-.77.41-1.07.71-.3.3-.54.66-.72,1.06-.18.41-.26.84-.26,1.3s.09.89.26,1.29c.17.4.41.75.7,1.04.3.3.64.53,1.04.71s2.46.26,2.91.26h.26s.07.01.11.02c.3,0,2.83.06,3.07.16.23.11.43.25.58.43.16.17.28.37.36.58s.13.43.13.65c0,.24-.05.47-.14.69s-.22.41-.38.58c-.16.16-.34.3-.55.39s-.43.15-.67.16h-6.92c-.21,0-.38.07-.53.22-.15.15-.22.33-.22.54v.71h7.8c.44-.03.84-.14,1.21-.33.37-.19.69-.43.96-.73s.48-.64.64-1.02c.16-.38.23-.79.23-1.22,0-.46-.09-.89-.26-1.29h0Z"/><path class="cls-1" d="m62.54,22.15c0,.81-.16,1.57-.49,2.29-.33.72-.77,1.34-1.32,1.88-.56.54-1.21.96-1.95,1.27s-1.54.46-2.39.46-1.65-.15-2.4-.46-1.41-.73-1.96-1.27c-.56-.54-1-1.16-1.32-1.88-.33-.72-.49-1.48-.49-2.29s.16-1.58.49-2.3c.33-.72.77-1.34,1.32-1.88s1.21-.96,1.96-1.27,1.55-.46,2.4-.46,1.65.16,2.39.46c.74.31,1.4.73,1.95,1.27.56.54,1,1.16,1.32,1.88.33.72.49,1.49.49,2.3h0Zm-6.16-4.44c-.64,0-1.24.12-1.81.35-.56.23-1.06.55-1.48.95s-.76.87-1,1.41c-.24.54-.36,1.11-.36,1.73s.12,1.18.36,1.71c.24.54.58,1,1,1.41s.92.72,1.48.95,1.16.35,1.81.35,1.24-.12,1.81-.35c.56-.23,1.05-.55,1.47-.95s.75-.87.99-1.41c.24-.54.36-1.11.36-1.71s-.12-1.19-.36-1.73c-.24-.54-.57-1-.99-1.41s-.91-.72-1.47-.95c-.56-.23-1.16-.35-1.81-.35Z"/><path class="cls-1" d="m27.59,22.15c0,.81-.16,1.57-.49,2.29s-.77,1.34-1.32,1.88c-.56.54-1.21.96-1.95,1.27s-1.54.46-2.39.46-1.65-.15-2.4-.46c-.75-.31-1.41-.73-1.96-1.27-.56-.54-1-1.16-1.32-1.88-.33-.72-.49-1.48-.49-2.29s.16-1.58.49-2.3c.33-.72.77-1.34,1.32-1.88s1.21-.96,1.96-1.27c.75-.31,1.55-.46,2.4-.46s1.65.16,2.39.46c.74.31,1.4.73,1.95,1.27.56.54,1,1.16,1.32,1.88.33.72.49,1.49.49,2.3h0Zm-6.16-4.44c-.64,0-1.24.12-1.81.35-.56.23-1.06.55-1.48.95-.42.4-.76.87-1,1.41-.24.54-.36,1.11-.36,1.73s.12,1.18.36,1.71c.24.54.58,1,1,1.41.42.4.92.72,1.48.95s1.16.35,1.81.35,1.24-.12,1.81-.35c.56-.23,1.05-.55,1.47-.95s.75-.87.99-1.41c.24-.54.36-1.11.36-1.71s-.12-1.19-.36-1.73c-.24-.54-.57-1-.99-1.41s-.91-.72-1.47-.95-1.16-.35-1.81-.35Z"/><path class="cls-1" d="m64.03,11.88c-.25,0-.46-.07-.64-.22-.18-.14-.26-.33-.26-.55V3.3l-4.68,8.14c-.09.18-.24.31-.43.4-.19.09-.39.13-.61.13s-.42-.04-.61-.13-.33-.22-.43-.4l-4.68-8.14v7.82c0,.22-.09.41-.26.55-.18.15-.39.22-.64.22h-.55V.11s.78,0,.78,0c.33,0,.58.13.73.38l5.66,10.07L63.07.49c.16-.25.4-.38.73-.38h.8v11.78h-.57Z"/><path class="cls-1" d="m94.84.11c-.21,0-.38.07-.53.22-.15.15-.22.33-.22.54v9.11L87,.31c-.09-.13-.22-.2-.38-.2h-1.51v11.78h.75c.21,0,.38-.07.53-.22.15-.15.22-.33.22-.54V2.03l7.08,9.67c.09.13.22.2.37.2h1.53V.11h-.75,0Z"/><path class="cls-1" d="m29.33.33c-.15-.15-.34-.22-.56-.22h-.79v4.43h-8.01V.87c0-.21-.07-.39-.22-.54s-.32-.22-.53-.22h-.75v11.02c0,.21.07.39.22.54s.32.22.53.22h.75v-5.9h8.01v5.14c0,.21.08.39.23.54s.34.22.56.22h.79V.87c0-.21-.08-.39-.23-.54Z"/><path class="cls-1" d="m44.66.11c-.12,0-.21.04-.28.12s-.11.17-.11.28v5.69c0,.84-.22,1.61-.65,2.31s-1.02,1.25-1.76,1.64l-.37.12c-1.04.25-2.13.26-3.18.03l-.09-.02c-.1-.04-.2-.07-.29-.1-.01,0-.02-.01-.03-.02-.74-.39-1.32-.93-1.76-1.64-.43-.71-.65-1.48-.65-2.31V.51c0-.11-.04-.2-.11-.28s-.16-.12-.26-.12h-1.06v6.08c0,.64.1,1.26.3,1.85.2.59.48,1.14.83,1.64.36.5.79.93,1.29,1.3s1.05.65,1.65.83l.28.08h.04c.9.14,1.82.15,2.73.02l.17-.02.26-.08c.61-.2,1.17-.48,1.68-.85.51-.37.94-.8,1.29-1.31.36-.5.63-1.05.83-1.65.19-.6.28-1.23.27-1.89V.11h-1.04,0Zm-6.34,10.18s.02,0,.03,0c0,0-.01,0-.03,0Z"/><path class="cls-1" d="m70.08,11.89c.12,0,.21-.04.28-.12s.11-.17.11-.28v-5.69c0-.84.22-1.61.65-2.31s1.02-1.25,1.76-1.64l.37-.12c1.04-.25,2.13-.26,3.18-.03l.09.02c.1.04.2.07.29.1.01,0,.02.01.03.02.74.39,1.32.93,1.76,1.64.43.71.65,1.48.65,2.31v5.69c0,.11.04.2.11.28s.16.12.26.12h1.06v-6.08c0-.64-.1-1.26-.3-1.85s-.48-1.14-.83-1.64c-.36-.5-.79-.93-1.29-1.3s-1.05-.65-1.65-.83l-.28-.08h-.04c-.9-.14-1.82-.15-2.73-.02l-.17.02-.26.08c-.61.2-1.17.48-1.68.85-.51.37-.94.8-1.29,1.31-.36.5-.63,1.05-.83,1.65-.19.6-.28,1.23-.27,1.89v6h1.04Zm6.34-10.18s-.02,0-.03,0c0,0,.01,0,.03,0Z"/></g></svg>