<?xml version="1.0" encoding="UTF-8"?><svg id="Layer_2" xmlns="http://www.w3.org/2000/svg" viewBox="0 0 77.11 12"><defs><style>.cls-1{fill:#fff;}</style></defs><g id="Layer_2-2"><path class="cls-1" d="m45.56,11.88c-.25,0-.46-.07-.64-.22-.18-.14-.26-.33-.26-.55V3.3l-4.68,8.14c-.09.18-.24.31-.43.4-.19.09-.39.13-.61.13s-.42-.04-.61-.13-.33-.22-.43-.4l-4.68-8.14v7.82c0,.22-.09.41-.26.55-.18.15-.39.22-.64.22h-.55V.11s.78,0,.78,0c.33,0,.58.13.73.38l5.66,10.07L44.59.49c.16-.25.4-.38.73-.38h.8v11.78h-.57Z"/><path class="cls-1" d="m76.37.11c-.21,0-.38.07-.53.22-.15.15-.22.33-.22.54v9.11L68.52.31c-.09-.13-.22-.2-.38-.2h-1.51v11.78h.75c.21,0,.38-.07.53-.22.15-.15.22-.33.22-.54V2.03l7.08,9.67c.09.13.22.2.37.2h1.53V.11h-.75,0Z"/><path class="cls-1" d="m10.86.33c-.15-.15-.34-.22-.56-.22h-.79v4.43H1.5V.87c0-.21-.07-.39-.22-.54S.96.11.75.11h-.75v11.02c0,.21.07.39.22.54s.32.22.53.22h.75v-5.9h8.01v5.14c0,.21.08.39.23.54s.34.22.56.22h.79V.87c0-.21-.08-.39-.23-.54Z"/><path class="cls-1" d="m26.19.11c-.12,0-.21.04-.28.12s-.11.17-.11.28v5.69c0,.84-.22,1.61-.65,2.31s-1.02,1.25-1.76,1.64l-.37.12c-1.04.25-2.13.26-3.18.03l-.09-.02c-.1-.04-.2-.07-.29-.1-.01,0-.02-.01-.03-.02-.74-.39-1.32-.93-1.76-1.64-.43-.71-.65-1.48-.65-2.31V.51c0-.11-.04-.2-.11-.28s-.16-.12-.26-.12h-1.06v6.08c0,.64.1,1.26.3,1.85.2.59.48,1.14.83,1.64.36.5.79.93,1.29,1.3s1.05.65,1.65.83l.28.08h.04c.9.14,1.82.15,2.73.02l.17-.02.26-.08c.61-.2,1.17-.48,1.68-.85.51-.37.94-.8,1.29-1.31.36-.5.63-1.05.83-1.65.19-.6.28-1.23.27-1.89V.11h-1.04,0Zm-6.34,10.18s.02,0,.03,0c0,0-.01,0-.03,0Z"/><path class="cls-1" d="m51.6,11.89c.12,0,.21-.04.28-.12s.11-.17.11-.28v-5.69c0-.84.22-1.61.65-2.31s1.02-1.25,1.76-1.64l.37-.12c1.04-.25,2.13-.26,3.18-.03l.09.02c.1.04.2.07.29.1.01,0,.02.01.03.02.74.39,1.32.93,1.76,1.64.43.71.65,1.48.65,2.31v5.69c0,.11.04.2.11.28s.16.12.26.12h1.06v-6.08c0-.64-.1-1.26-.3-1.85s-.48-1.14-.83-1.64c-.36-.5-.79-.93-1.29-1.3s-1.05-.65-1.65-.83l-.28-.08h-.04c-.9-.14-1.82-.15-2.73-.02l-.17.02-.26.08c-.61.2-1.17.48-1.68.85-.51.37-.94.8-1.29,1.31-.36.5-.63,1.05-.83,1.65-.19.6-.28,1.23-.27,1.89v6h1.04Zm6.34-10.18s-.02,0-.03,0c0,0,.01,0,.03,0Z"/></g></svg>