<?xml version="1.0" encoding="UTF-8"?><svg id="Layer_2" xmlns="http://www.w3.org/2000/svg" viewBox="0 0 114.15 126.3"><defs><style>.cls-1{fill:#fff;}</style></defs><g id="Layer_2-2"><path class="cls-1" d="m104.74,24.6L66.49,2.52c-5.82-3.36-13-3.36-18.83,0L9.41,24.6C3.59,27.97,0,34.18,0,40.91v45.34c0,3.9,1.35,7.6,3.72,10.54,1.18,1.46,3.56.58,3.56-1.3.01-8.44.01-16.88-.01-25.32.02-2.81,2.32-4.98,4.7-6.09,3.45-1.71,7.8-.96,10.73,1.46,1.58,1.3,2.64,3.28,2.65,5.34.11,12.85.1,25.69.02,38.54,0,.72.38,1.39,1.01,1.76l2.29,1.32c1.33.77,3.01-.18,3.03-1.72.11-9.07-.05-18.13.04-27.2-.05-1.93.83-3.8,2.21-5.12,3.3-3.04,8.65-3.4,12.49-1.17,1.84,1.08,3.52,2.96,3.49,5.22-.02,13.61-.04,27.21-.05,40.82,0,.83.51,1.59,1.29,1.89,4.66,1.75,9.92,1.36,14.32-1.17l39.26-22.67c5.82-3.36,9.41-9.58,9.41-16.3v-44.17c0-6.72-3.59-12.94-9.41-16.3h0ZM24.85,54.2c-1.75,4.51-7.38,7.05-11.88,5.16-3.17-1.27-5.55-4.4-5.72-7.84-.33-4.16,2.87-8.13,6.88-9.04.8-.21,1.62-.3,2.44-.29,1.81.04,3.6.61,5.04,1.73,3.11,2.26,4.74,6.62,3.24,10.26h0Zm24.82,17.02c-.23.62-.94.85-1.54.8-5,0-10.01,0-15.01,0-.89.1-1.26-.97-1.29-1.69-.08-4.66,0-9.33-.03-14v-.02c-.05-1.01.74-1.88,1.75-1.97.45-.04.9-.06,1.35-.06.78,0,1.57.02,2.35,0,3.75.05,7.5-.03,11.25.02.91-.08,1.46.91,1.42,1.71.07,4.09-.05,8.18.03,12.26,0,.99.03,2-.27,2.95h0Z"/></g></svg>